<svg xmlns="http://www.w3.org/2000/svg" style="width:100%;height:100%" viewBox="0 0 436 455" preserveAspectRatio="none" width="436" height="455"><path fill="#fff" d="M0 0h500v500H0z"/><defs><svg width="436" height="455" fill="none" id="a"><path d="M218.906 155.606c-37.976 0-68.761 32.16-68.761 71.831s30.785 71.831 68.761 71.831 68.76-32.16 68.76-71.831-30.785-71.831-68.76-71.831" fill="#165bff"/><path fill-rule="evenodd" clip-rule="evenodd" d="M382.876 455H214.448C95.951 452.852.526 351.8.526 227.5.526 101.855 98.027 0 218.3 0 336.622 0 432.903 98.573 436 221.397l-.377 184.716C432.489 433.685 410.113 455 382.876 455M78.769 194.8c14.262-67.124 71.588-117.319 140.137-117.319 79.278 0 143.546 67.138 143.546 149.956 0 .621.007 1.295.014 1.985.016 1.437.032 2.949-.014 4.23v142.725h-74.683v-17.334c-20.444 11.698-43.91 18.35-68.863 18.35-68.549 0-125.875-50.195-140.137-117.32 13.654-3.998 23.667-17.096 23.667-32.636S92.423 198.799 78.769 194.8m-9.473 56.534c12.687 0 22.971-10.744 22.971-23.997s-10.284-23.996-22.97-23.996c-12.687 0-22.972 10.743-22.972 23.996s10.285 23.997 22.971 23.997" fill="#165bff"/></svg></defs><use href="#a"/></svg>
