<svg width="256" height="256" viewBox="0 0 256 256" fill="none" xmlns="http://www.w3.org/2000/svg"><g clip-path="url(#a)"><path d="m105.017 110.067 3.466-62.567 36.384 20.167z" fill="url(#b)"/><path d="m105.017 110.067 3.466-62.567-46.2 29.117L47.5 165.133z" fill="url(#c)"/><path d="M204.317 95.45 183.733 53.6l-38.866 14.067-39.85 42.4L47.5 165.133 99.383 202.9l65.217-58.817z" fill="url(#d)"/><path d="M177.5 139.233V177.5h-62.833l27.616 21.367 40 8.633 25.217-57.083z" fill="url(#e)"/><path d="M77.5 77.5h100v100h-100z" fill="#000"/><path d="M89.967 158.6h37.5v6.25h-37.5zm37.616-68.7h8.334v30.65h16.417v6.95h-24.751zM87.3 108.95v-.1a19.235 19.235 0 0 1 19.717-19.567 19.5 19.5 0 0 1 14.9 5.834l-5.25 6.116a13.97 13.97 0 0 0-9.684-4.266c-6.366 0-10.95 5.283-10.95 11.766v.117c0 6.483 4.484 11.883 10.95 11.883 4.334 0 6.967-1.666 10-4.433l5.2 5.367a19.32 19.32 0 0 1-15.516 6.666 19.1 19.1 0 0 1-13.786-5.593 19.07 19.07 0 0 1-5.58-13.79" fill="#fff"/></g><defs><linearGradient id="b" x1="105.017" y1="78.783" x2="150.85" y2="78.783" gradientUnits="userSpaceOnUse"><stop stop-color="#ff318c"/><stop offset=".15" stop-color="#fb348c"/><stop offset=".28" stop-color="#f03c8c"/><stop offset=".42" stop-color="#de4a8c"/><stop offset=".54" stop-color="#c45d8b"/><stop offset=".67" stop-color="#a2778b"/><stop offset=".79" stop-color="#79958a"/><stop offset=".91" stop-color="#49b98a"/><stop offset="1" stop-color="#21d789"/></linearGradient><linearGradient id="c" x1="86.65" y1="67.8" x2="63.117" y2="225.7" gradientUnits="userSpaceOnUse"><stop offset=".09" stop-color="#21d789"/><stop offset=".9" stop-color="#009ae5"/></linearGradient><linearGradient id="d" x1="193.417" y1="62.333" x2="32.45" y2="232.333" gradientUnits="userSpaceOnUse"><stop offset=".09" stop-color="#21d789"/><stop offset=".9" stop-color="#009ae5"/></linearGradient><linearGradient id="e" x1="144.733" y1="168.367" x2="199.783" y2="176.2" gradientUnits="userSpaceOnUse"><stop offset=".09" stop-color="#21d789"/><stop offset=".9" stop-color="#009ae5"/></linearGradient><clipPath id="a"><path fill="#fff" d="M0 0h256v256H0z"/></clipPath></defs></svg>
