<svg width="256" height="256" viewBox="0 0 256 256" fill="none" xmlns="http://www.w3.org/2000/svg"><g clip-path="url(#a)"><path d="m65.08 216.038-51.52-26.44-.48-.24C5.32 185.398 0 177.318 0 167.998v-80c0-9.32 5.32-17.4 13.08-21.36l.48-.24 51.52-26.44c-7.76 4-13.08 12.04-13.08 21.36v133.36c0 9.32 5.32 17.36 13.08 21.36" fill="url(#b)"/><path d="M241.24 39.158c-2.84-1.16-5.96-1.84-9.24-1.84-8 0-15.08 3.92-19.44 9.92l-.08.12L192 75.598l-38 52.4-39.72 54.76-18.76 25.88-.08.12c-4.36 6-11.44 9.92-19.44 9.92-3.84 0-7.48-.92-10.72-2.52a1 1 0 0 1-.2-.12l-51.52-26.44c3.16 1.52 6.72 2.4 10.44 2.4 8.44 0 15.84-4.36 20.12-10.92l7.88-12.12 26.64-40.96 35.64-54.76 33.6-51.64c4.28-6.6 11.68-10.92 20.12-10.92 3.28 0 6.4.64 9.24 1.84z" fill="url(#c)"/><path d="M241.24 39.158c-2.84-1.16-5.96-1.84-9.24-1.84-8 0-15.08 3.92-19.44 9.92l-.08.12L192 75.598l-38 52.4-39.72 54.76-18.76 25.88-.08.12c-4.36 6-11.44 9.92-19.44 9.92-3.84 0-7.48-.92-10.72-2.52a1 1 0 0 1-.2-.12l-51.52-26.44c3.16 1.52 6.72 2.4 10.44 2.4 8.44 0 15.84-4.36 20.12-10.92l7.88-12.12 26.64-40.96 35.64-54.76 33.6-51.64c4.28-6.6 11.68-10.92 20.12-10.92 3.28 0 6.4.64 9.24 1.84z" fill="url(#d)" fill-opacity=".3"/><path d="m241.24 216.838-64 26.64c-2.84 1.2-5.96 1.84-9.24 1.84-8.44 0-15.84-4.32-20.12-10.92l-33.6-51.64-35.64-54.76L52 87.038l-7.88-12.12c-4.28-6.56-11.68-10.92-20.12-10.92-3.72 0-7.28.88-10.44 2.4l51.52-26.44c.04-.04.12-.08.2-.12 3.24-1.6 6.88-2.52 10.72-2.52 8 0 15.08 3.92 19.44 9.92l.08.12 18.76 25.88 39.72 54.76 38 52.4 20.48 28.24.08.12c4.36 6 11.44 9.92 19.44 9.92 3.28 0 6.4-.68 9.24-1.84" fill="url(#e)"/><path d="m241.24 216.838-64 26.64c-2.84 1.2-5.96 1.84-9.24 1.84-8.44 0-15.84-4.32-20.12-10.92l-33.6-51.64-35.64-54.76L52 87.038l-7.88-12.12c-4.28-6.56-11.68-10.92-20.12-10.92-3.72 0-7.28.88-10.44 2.4l51.52-26.44c.04-.04.12-.08.2-.12 3.24-1.6 6.88-2.52 10.72-2.52 8 0 15.08 3.92 19.44 9.92l.08.12 18.76 25.88 39.72 54.76 38 52.4 20.48 28.24.08.12c4.36 6 11.44 9.92 19.44 9.92 3.28 0 6.4-.68 9.24-1.84" fill="url(#f)"/><path d="M256 61.318v133.36c0 9.96-6.08 18.52-14.76 22.16l-64 26.64a23.95 23.95 0 0 0 14.76-22.16V34.678c0-10-6.08-18.56-14.76-22.16l64 26.64c8.68 3.64 14.76 12.2 14.76 22.16" fill="url(#g)"/></g><defs><linearGradient id="b" x1="-24.235" y1="216.038" x2="83.554" y2="158.686" gradientUnits="userSpaceOnUse"><stop offset=".073" stop-color="#85148a"/><stop offset=".296" stop-color="#7f21a9"/><stop offset=".661" stop-color="#5b2ab5"/><stop offset=".855" stop-color="#4b20a0"/></linearGradient><linearGradient id="c" x1="165.436" y1="2.678" x2="55.807" y2="233.437" gradientUnits="userSpaceOnUse"><stop stop-color="#4b20a0"/><stop offset=".266" stop-color="#6d37cd"/><stop offset=".785" stop-color="#7a41dc"/><stop offset="1" stop-color="#ca59f7"/></linearGradient><linearGradient id="d" x1="142.065" y1="110.678" x2="63.037" y2="167.208" gradientUnits="userSpaceOnUse"><stop stop-color="#30116e" stop-opacity="0"/><stop offset=".164" stop-color="#30116e" stop-opacity=".7"/><stop offset=".712" stop-color="#30116e"/><stop offset="1" stop-color="#30116e" stop-opacity="0"/></linearGradient><linearGradient id="e" x1="44.826" y1="37.318" x2="164.911" y2="271.838" gradientUnits="userSpaceOnUse"><stop offset=".037" stop-color="#ffbac7"/><stop offset=".188" stop-color="#ea71ef"/><stop offset=".349" stop-color="#ca59f7"/><stop offset=".618" stop-color="#8b52f4"/><stop offset="1" stop-color="#5750e2"/></linearGradient><linearGradient id="g" x1="216.62" y1="-10.62" x2="216.62" y2="274.614" gradientUnits="userSpaceOnUse"><stop stop-color="#ffbac7"/><stop offset=".291" stop-color="#ea71ef"/><stop offset=".675" stop-color="#8b52f4"/><stop offset=".917" stop-color="#5750e2"/></linearGradient><radialGradient id="f" cx="0" cy="0" r="1" gradientTransform="matrix(215.747 86.6666 -197.178 492.004 -3.7 149.318)" gradientUnits="userSpaceOnUse"><stop offset=".611" stop-color="#8b52f4" stop-opacity="0"/><stop offset=".978" stop-color="#30116e"/></radialGradient><clipPath id="a"><path fill="#fff" d="M0 0h256v256H0z"/></clipPath></defs></svg>