<svg xmlns="http://www.w3.org/2000/svg" width="96" height="96" fill="none" xmlns:v="https://vecta.io/nano"><g clip-path="url(#J)"><g clip-path="url(#K)"><use href="#L" fill="url(#A)"/><use href="#L" fill="url(#B)"/><use href="#M" fill="#d9d9d9"/><use href="#M" fill="url(#C)"/><use href="#N" fill="url(#D)"/><use href="#N" fill="url(#E)"/><path fill="url(#F)" d="M12.555 50.07A4.143 4.143 0 0 1 12 48l8.989-.4 8.989.4c0 .69.178 1.38.535 2L47.83 80H32.14a4 4 0 0 1-3.464-2L12.555 50.07Z"/><use href="#O" fill="url(#G)"/><use href="#O" fill="url(#H)"/><path fill="url(#I)" d="M12 48h17.978a4 4 0 0 1 .535-2L47.83 16H32.14a4 4 0 0 0-3.464 2L12.555 45.93A4.142 4.142 0 0 0 12 48z"/></g></g><defs><linearGradient id="A" x1="48" x2="120.248" y1="6.143" y2="47.567" href="#P"><stop stop-color="#0fafff"/><stop offset="1" stop-color="#0078d4"/></linearGradient><linearGradient id="B" x1="52" x2="120.953" y1="6.143" y2="42.383" href="#P"><stop stop-color="#0078d4"/><stop offset="1" stop-color="#004695"/></linearGradient><linearGradient id="C" x1="56.594" x2="103.043" y1="15.712" y2="35.428" href="#P"><stop stop-color="#9deaff"/><stop offset="1" stop-color="#3bd5ff"/></linearGradient><linearGradient id="D" x1="0" x2="39.273" y1="47.999" y2="111.839" href="#P"><stop stop-color="#0078d4"/><stop offset="1" stop-color="#004695"/></linearGradient><linearGradient id="E" x1="26.02" x2="22.598" y1="47.999" y2="92.432" href="#P"><stop stop-color="#0fafff"/><stop offset="1" stop-color="#0078d4"/></linearGradient><linearGradient id="F" x1="12" x2="39.193" y1="51.981" y2="86.754" href="#P"><stop stop-color="#e6f9fe"/><stop offset="1" stop-color="#9deaff"/></linearGradient><linearGradient id="G" x1="0" x2="39.273" y1="4" y2="67.841" href="#P"><stop stop-color="#3bd5ff"/><stop offset="1" stop-color="#0fafff"/></linearGradient><linearGradient id="H" x1="26.021" x2="7.043" y1="6.2" y2="35.856" href="#P"><stop stop-color="#3bd5ff"/><stop offset="1" stop-color="#0fafff"/></linearGradient><linearGradient id="I" x1="12" x2="43.797" y1="16" y2="51.602" href="#P"><stop stop-color="#fefefe"/><stop offset="1" stop-color="#e6f9fe"/></linearGradient><clipPath id="J"><path fill="#fff" d="M0 0h96v96H0z"/></clipPath><clipPath id="K"><path fill="#fff" d="M0 0h96v96H0z"/></clipPath><path id="L" d="M96.002 48.001c0-2.462-.648-4.88-1.88-7.012L77.387 12a15.99 15.99 0 0 0-5.859-5.857l-23.37 39.786a4.141 4.141 0 0 0 0 4.142L71.524 89.86a15.99 15.99 0 0 0 5.859-5.856l16.74-28.991a14.025 14.025 0 0 0 1.878-7.01Z"/><path id="M" d="m64.676 50-8.082 14 .7 8.144 8.702 8.143 9.239-15.999h.004l8.209-14.218a4.141 4.141 0 0 0 0-4.14l-8.209-14.218h-.005l-9.238-16-8.701 8.144-.701 8.143 8.082 14a4 4 0 0 1 0 4Z"/><path id="N" d="M32.638 92h30.89a15.99 15.99 0 0 0 7.995-2.142L48.555 50.071A4.142 4.142 0 0 1 48 48l-24-.4L0 48c0 2.269.597 4.498 1.732 6.464L18.782 84a16 16 0 0 0 13.856 8Z"/><path id="O" d="M32.641 4h30.887c2.857 0 5.606.762 7.998 2.142L48.555 45.93A4.142 4.142 0 0 0 48 48H0c0-2.269.598-4.5 1.732-6.465L18.785 12A16 16 0 0 1 32.64 4Z"/><linearGradient id="P" gradientUnits="userSpaceOnUse"/></defs></svg>